<svg width="16" height="20" viewBox="0 0 16 20" fill="none" xmlns="http://www.w3.org/2000/svg">
<path d="M14.066 0H9.828C9.027 0 8.273 0.312 7.707 0.879L4.879 3.707C4.312 4.273 4 5.027 4 5.829V14C4 15.103 4.867 16 5.934 16H14.067C15.133 16 16 15.103 16 14V2C16 0.897 15.133 0 14.066 0ZM9 2.414V5H6.414L9 2.414ZM6 14V7H9C10.103 7 11 6.103 11 5V1.993L13.994 1.974C13.994 1.974 14 1.982 14 2L14.066 14H6Z" fill="black"/>
<path d="M10 17V18H2L1.999 6H3V4H2C0.897 4 0 4.897 0 6V18C0 19.103 0.867 20 1.934 20H10.034C10.58 20 11.091 19.784 11.471 19.391C11.832 19.018 11.981 18.535 11.995 18L12 17H10Z" fill="black"/>
</svg>
