<svg width="21" height="17" viewBox="0 0 21 17" fill="none" xmlns="http://www.w3.org/2000/svg">
<path d="M18.9 0H2.1C1.54305 0 1.0089 0.238809 0.615076 0.663891C0.221249 1.08897 0 1.66551 0 2.26667V14.7333C0 15.3345 0.221249 15.911 0.615076 16.3361C1.0089 16.7612 1.54305 17 2.1 17H18.9C19.457 17 19.9911 16.7612 20.3849 16.3361C20.7787 15.911 21 15.3345 21 14.7333V2.26667C21 1.66551 20.7787 1.08897 20.3849 0.663891C19.9911 0.238809 19.457 0 18.9 0ZM18.3256 2.26667L10.5451 9.38853L2.6838 2.26667H18.3256ZM2.1 14.7333V4.69767L9.24 11.1577C9.59925 11.4493 10.0368 11.6065 10.4864 11.6053C10.9635 11.6033 11.427 11.433 11.8062 11.1203L18.9 4.69767V14.7333H2.1Z" fill="#232324"/>
</svg>
