<svg width="22" height="22" viewBox="0 0 22 22" fill="none" xmlns="http://www.w3.org/2000/svg">
<path d="M17.2791 8.53302V7.27907C17.2791 4.5814 16.6279 1 11 1C5.37209 1 4.72093 4.5814 4.72093 7.27907V8.53302C1.91535 8.87721 1 10.3005 1 13.7907V15.6512C1 19.7507 2.25023 21 6.34884 21H15.6512C19.7498 21 21 19.7507 21 15.6512V13.7907C21 10.2967 20.0847 8.87721 17.2791 8.53302ZM6.11628 7.27907C6.11628 4.34791 6.94698 2.39535 11 2.39535C15.053 2.39535 15.8837 4.34884 15.8837 7.27907V8.44651C15.8047 8.44651 15.7321 8.44186 15.6512 8.44186H6.34884C6.26791 8.44186 6.19535 8.44186 6.11628 8.44651V7.27907ZM19.6047 15.6512C19.6047 18.9767 18.9767 19.6047 15.6512 19.6047H6.34884C3.02326 19.6047 2.39535 18.9767 2.39535 15.6512V13.7907C2.39535 10.4651 3.02326 9.83721 6.34884 9.83721H15.6512C18.9767 9.83721 19.6047 10.4651 19.6047 13.7907V15.6512Z" fill="#1F1E1E" stroke="black"/>
<path d="M7.94036 14.0611C8.1133 14.2375 8.21018 14.4746 8.21018 14.7216C8.21018 14.9686 8.1133 15.2057 7.94036 15.3821L7.80082 15.4937C7.74888 15.5287 7.69259 15.5569 7.63338 15.5774C7.57764 15.6057 7.5176 15.6245 7.45571 15.6332C7.39768 15.6441 7.3389 15.6503 7.27989 15.6518C7.15739 15.6531 7.03586 15.6299 6.92244 15.5836C6.80902 15.5372 6.70597 15.4688 6.61935 15.3821C6.53272 15.2955 6.46424 15.1925 6.41793 15.079C6.37163 14.9656 6.34841 14.8441 6.34966 14.7216C6.34824 14.5842 6.3776 14.4481 6.4356 14.3235C6.49359 14.1989 6.57874 14.0889 6.6848 14.0014C6.79087 13.914 6.91516 13.8514 7.04855 13.8183C7.18194 13.7852 7.32106 13.7823 7.45571 13.81C7.5176 13.8186 7.57764 13.8375 7.63338 13.8658C7.69259 13.8863 7.74888 13.9144 7.80082 13.9495L7.94036 14.0611ZM10.3404 14.0611C10.211 14.1915 10.1232 14.3573 10.0879 14.5375C10.0526 14.7178 10.0715 14.9044 10.1421 15.0739C10.2128 15.2435 10.332 15.3883 10.4848 15.4902C10.6376 15.5921 10.8172 15.6464 11.0008 15.6464C11.1845 15.6464 11.364 15.5921 11.5168 15.4902C11.6696 15.3883 11.7889 15.2435 11.8595 15.0739C11.9301 14.9044 11.949 14.7178 11.9137 14.5375C11.8785 14.3573 11.7906 14.1915 11.6613 14.0611C11.4814 13.8951 11.2456 13.803 11.0008 13.803C10.756 13.803 10.5203 13.8951 10.3404 14.0611ZM15.5776 14.3681C15.5304 14.2554 15.4643 14.1516 15.3822 14.0611C15.2916 13.9792 15.1878 13.9132 15.0752 13.8658C14.9056 13.7914 14.717 13.7719 14.5357 13.81C14.4774 13.8201 14.421 13.8389 14.3683 13.8658C14.3088 13.8863 14.2522 13.9144 14.1999 13.9495C14.1516 13.9841 14.1054 14.0213 14.0613 14.0611C13.9792 14.1516 13.9131 14.2554 13.8659 14.3681C13.8168 14.4795 13.7915 14.5999 13.7915 14.7216C13.7915 14.8433 13.8168 14.9637 13.8659 15.0751C13.9109 15.1889 13.9772 15.2931 14.0613 15.3821L14.1999 15.4937C14.2522 15.5288 14.3088 15.5569 14.3683 15.5774C14.421 15.6043 14.4774 15.6231 14.5357 15.6332C14.5972 15.644 14.6594 15.6502 14.7218 15.6518C14.8443 15.6531 14.9658 15.6299 15.0792 15.5836C15.1926 15.5372 15.2957 15.4688 15.3823 15.3821C15.4689 15.2955 15.5374 15.1925 15.5837 15.079C15.63 14.9656 15.6532 14.8441 15.652 14.7216C15.6505 14.6 15.6252 14.4799 15.5776 14.3681Z" fill="#1F1E1E"/>
</svg>
