<svg width="143" height="140" viewBox="0 0 143 140" fill="none" xmlns="http://www.w3.org/2000/svg">
<g clip-path="url(#clip0_68_22208)">
<path d="M142.447 70.1044C142.437 69.3757 142.432 68.7073 142.416 68.0393C142.407 67.6551 142.388 67.2709 142.362 66.8875C142.332 66.4443 142.285 66.0022 142.254 65.5591C142.209 64.9129 142.198 64.2642 142.106 63.6215C142.083 63.4614 142.07 63.2989 142.068 63.1372C142.056 62.2634 141.851 61.4104 141.789 60.5418C141.771 60.2799 141.729 60.0193 141.695 59.7586C141.669 59.5582 141.638 59.3581 141.607 59.1585C141.581 58.9984 141.547 58.8397 141.524 58.6795C141.422 57.9788 141.333 57.2767 141.191 56.5818C141.048 55.8885 140.951 55.1862 140.803 54.4937C140.752 54.2564 140.678 54.023 140.639 53.7838C140.524 53.0643 140.311 52.3669 140.163 51.6551C140.097 51.3383 139.989 51.0311 139.918 50.7171C139.786 50.1247 139.585 49.5514 139.454 48.9598C139.38 48.6236 139.253 48.3043 139.155 47.9764C139.056 47.649 138.963 47.3191 138.85 46.9947C138.718 46.6148 138.608 46.225 138.478 45.8426C138.347 45.4609 138.229 45.0748 138.089 44.6964C137.864 44.0908 137.652 43.4803 137.407 42.8828C137.224 42.4354 137.079 41.9741 136.868 41.536C136.738 41.2654 136.648 40.975 136.516 40.7007C136.387 40.4298 136.282 40.1466 136.154 39.8731C136.026 39.6022 135.911 39.324 135.787 39.0497C135.281 37.9296 134.722 36.8366 134.157 35.7457C133.637 34.7417 133.082 33.757 132.504 32.7869C131.709 31.4524 130.857 30.1535 129.964 28.8801C129.106 27.6552 128.208 26.4607 127.265 25.3003C126.551 24.4211 125.817 23.5579 125.049 22.7237C124.555 22.1878 124.068 21.6463 123.557 21.126C123.076 20.6357 122.601 20.1386 122.109 19.6593C121.718 19.278 121.3 18.9239 120.902 18.5487C119.829 17.536 118.705 16.5818 117.555 15.6582C116.862 15.1016 116.156 14.5608 115.438 14.0353C114.786 13.5578 114.132 13.0837 113.466 12.6269C112.833 12.193 112.184 11.7812 111.54 11.3646C111.031 11.0359 110.514 10.7211 109.994 10.4105C109.162 9.91288 108.318 9.43383 107.466 8.9706C106.968 8.70045 106.452 8.46526 105.973 8.16257C105.277 7.88406 104.629 7.50475 103.948 7.19354C103.25 6.87489 102.554 6.54727 101.851 6.24033C101.13 5.92563 100.405 5.61899 99.6697 5.33804C99.0275 5.09267 98.3849 4.8479 97.7416 4.60511C97.6281 4.56224 97.5041 4.54415 97.3955 4.49231C96.9746 4.29163 96.5168 4.19494 96.0852 4.02056C95.7128 3.87005 95.318 3.7647 94.9302 3.65159C94.2901 3.4649 93.6693 3.21162 93.0096 3.09136C92.4632 2.86864 91.878 2.77712 91.3192 2.59575C90.8365 2.43901 90.3328 2.36558 89.8441 2.23134C89.5321 2.14575 89.2209 2.05894 88.8978 2.00953C88.5587 1.95769 88.2285 1.84732 87.8937 1.76659C87.7559 1.73329 87.6161 1.70882 87.4766 1.68328C87.357 1.66139 87.2327 1.65637 87.1172 1.62171C86.7477 1.51042 86.3513 1.5203 85.9914 1.36478C85.9198 1.33392 85.8312 1.34289 85.751 1.33103C85.5502 1.30123 85.3488 1.27356 85.149 1.23829C84.7298 1.1644 84.3048 1.12138 83.8941 1.00113C83.8171 0.978626 83.7335 0.978018 83.6529 0.96692C83.3916 0.931041 83.1309 0.888777 82.8688 0.860196C82.3645 0.805161 81.8611 0.746935 81.3651 0.636714C81.2863 0.619231 81.2039 0.615734 81.1229 0.610565C80.3934 0.563892 79.673 0.42053 78.94 0.408367C78.8192 0.406391 78.6995 0.369904 78.5782 0.357894C78.1947 0.319887 77.8109 0.284616 77.4269 0.250714C77.1035 0.222133 76.7799 0.195528 76.4562 0.170443C76.1729 0.148399 75.8895 0.117841 75.6057 0.111456C74.6104 0.0889559 73.615 0.0754253 72.6194 0.0583982C72.3357 0.0535333 72.0534 0.0419791 71.7695 0.0164383C71.3873 -0.0179201 70.9989 0.0108133 70.6134 0.019935C70.3905 0.025256 70.1682 0.0532292 69.9455 0.0568779C69.1734 0.0694962 68.4014 0.0732969 67.6293 0.0856112C67.2841 0.0910843 66.9386 0.100206 66.5943 0.122858C66.048 0.158889 65.5026 0.206018 64.9571 0.25193C64.6132 0.280968 64.27 0.316542 63.9263 0.348924C63.5829 0.381306 63.2392 0.410648 62.8961 0.446223C62.2699 0.511139 61.644 0.579399 61.0179 0.647052C60.9777 0.651461 60.9377 0.66043 60.8982 0.669704C60.284 0.814283 59.6509 0.830702 59.0316 0.943507C58.7728 0.990636 58.5083 0.995349 58.2537 1.07957C58.1013 1.13005 57.935 1.13993 57.7744 1.1641C57.654 1.18219 57.5303 1.18356 57.4124 1.21093C56.8985 1.32981 56.372 1.38059 55.8597 1.51301C55.3504 1.64481 54.8261 1.70867 54.3135 1.83743C53.7251 1.98521 53.1259 2.09391 52.5367 2.2432C52.0461 2.36756 51.5541 2.48675 51.064 2.61293C50.9465 2.64318 50.8368 2.70901 50.7186 2.72954C50.0773 2.84052 49.4735 3.08346 48.848 3.24963C48.4961 3.34312 48.1509 3.4617 47.8016 3.56539C47.6461 3.61145 47.4685 3.61662 47.3352 3.69689C47.1015 3.83737 46.8376 3.87674 46.5889 3.94956C46.3355 4.02391 46.1027 4.14492 45.8481 4.21272C45.3003 4.35852 44.7922 4.6232 44.2401 4.75896C43.87 4.97712 43.4417 5.04949 43.0557 5.23071C42.6539 5.41937 42.2132 5.51789 41.8274 5.74623C41.4922 5.83396 41.1967 6.01973 40.8751 6.13619C40.4169 6.30205 39.982 6.51839 39.5351 6.70827C39.052 6.91351 38.584 7.15447 38.1123 7.38601C37.6408 7.6174 37.1494 7.8085 36.6966 8.07759C36.262 8.33589 35.779 8.50464 35.3621 8.79547C34.9452 8.95616 34.567 9.19409 34.1817 9.41255C33.4092 9.85054 32.6368 10.2898 31.8846 10.7629C31.3728 11.0847 30.8541 11.3956 30.3499 11.7295C29.8956 12.0302 29.4361 12.323 28.9853 12.6287C28.5339 12.9347 28.0801 13.2388 27.6461 13.5684C27.0513 14.0201 26.4446 14.4555 25.8535 14.9125C25.1019 15.4935 24.3666 16.0936 23.6365 16.7006C23.31 16.9722 23.0057 17.2703 22.6781 17.5383C21.9727 18.1157 21.3143 18.7441 20.6625 19.3768C19.3707 20.6306 18.107 21.9117 16.9184 23.2672C16.1064 24.1935 15.3112 25.1335 14.5484 26.0983C13.948 26.8575 13.3774 27.6424 12.8105 28.4289C11.9601 29.6088 11.1586 30.8207 10.394 32.0552C9.72475 33.1355 9.08938 34.238 8.49306 35.3615C8.35088 35.6292 8.19894 35.8919 8.06347 36.163C7.72039 36.8491 7.37654 37.5351 7.04703 38.2277C6.74345 38.8659 6.44995 39.5093 6.16666 40.1566C5.82662 40.9335 5.50474 41.718 5.19293 42.5067C4.83687 43.4072 4.50004 44.3142 4.18716 45.2301C4.14155 45.3636 4.12858 45.5109 4.06817 45.6362C3.84774 46.0933 3.77573 46.6013 3.56521 47.0609C3.32311 47.937 3.03235 48.7993 2.81237 49.6818C2.78309 49.799 2.71978 49.9088 2.69842 50.0266C2.57546 50.7039 2.34145 51.3534 2.20324 52.0273C2.08959 52.5816 1.94284 53.1294 1.82629 53.6835C1.79303 53.8419 1.7941 54.0111 1.73933 54.1609C1.57763 54.6028 1.56054 55.0727 1.45605 55.5256C1.39274 55.7997 1.35536 56.0819 1.29465 56.3589C1.22981 56.6546 1.18741 56.9555 1.13935 57.2547C1.05911 57.7538 1.01304 58.2583 0.888558 58.7505C0.863998 58.8475 0.87193 58.9521 0.859726 59.0527C0.837912 59.2335 0.81091 59.4135 0.78818 59.5941C0.757823 59.8349 0.729906 60.076 0.700311 60.317C0.670716 60.5578 0.642342 60.7987 0.610001 61.0392C0.588491 61.1992 0.549133 61.3574 0.537539 61.5178C0.47957 62.3253 0.343953 63.1258 0.322443 63.9366C0.316493 64.1587 0.290712 64.3793 0.266609 64.6008C0.209708 65.1232 0.183469 65.6491 0.152807 66.174C0.131602 66.5377 0.144874 66.9045 0.104753 67.2656C0.0466313 67.7889 0.0386987 68.3146 0.0168839 68.8383C-0.0153043 69.607 0.00834109 70.3779 0.00879874 71.1479C0.00879874 71.2492 0.00391712 71.3515 0.0158161 71.4515C0.0876674 72.0545 0.078667 72.6618 0.118178 73.2664C0.155095 73.8317 0.172181 74.3984 0.219624 74.9626C0.26188 75.4663 0.316493 75.9684 0.348529 76.4736C0.393226 77.1801 0.441585 77.8901 0.55554 78.5877C0.669648 79.2872 0.704277 79.9949 0.830437 80.6926C0.898627 81.0694 0.900915 81.4582 1.01548 81.8291C1.03318 81.8865 1.03791 81.9488 1.04218 82.0091C1.06704 82.3533 1.1485 82.6893 1.19442 83.0292C1.24065 83.3719 1.30685 83.7076 1.38999 84.0417C1.39976 84.081 1.40647 84.1211 1.41257 84.1611C1.50074 84.7403 1.61745 85.3133 1.74376 85.886C1.87861 86.4976 2.00264 87.1121 2.14603 87.7222C2.22017 88.0374 2.2725 88.358 2.35808 88.6698C2.48103 89.118 2.60079 89.5665 2.71383 90.0174C2.82641 90.4668 2.95562 90.9148 3.09658 91.3564C3.30511 92.0099 3.46758 92.6767 3.71258 93.3202C3.85506 93.6945 3.96291 94.0843 4.08831 94.4663C4.22652 94.8871 4.37373 95.3052 4.51698 95.7242C4.69317 96.2396 4.88172 96.7521 5.09255 97.2542C5.29544 97.7377 5.47347 98.2307 5.68658 98.7101C6.01502 99.4486 6.31463 100.2 6.64811 100.936C6.93918 101.579 7.26029 102.208 7.56753 102.843C7.97194 103.68 8.40473 104.502 8.85597 105.314C9.55252 106.566 10.2831 107.799 11.0637 109.003C11.6237 109.866 12.2026 110.716 12.799 111.555C13.4776 112.51 14.1872 113.441 14.9119 114.36C15.6362 115.28 16.3995 116.168 17.1781 117.041C17.9446 117.901 18.7413 118.734 19.56 119.546C20.4518 120.43 21.3519 121.304 22.294 122.136C22.9756 122.737 23.656 123.34 24.3638 123.91C24.8672 124.316 25.3868 124.702 25.889 125.109C26.4229 125.542 26.9782 125.945 27.5378 126.344C27.9982 126.672 28.4441 127.022 28.9181 127.329C29.5608 127.745 30.1916 128.179 30.8394 128.588C31.6251 129.084 32.4174 129.569 33.2169 130.042C33.5468 130.238 33.886 130.417 34.2163 130.612C34.7383 130.92 35.2932 131.167 35.8079 131.488C36.1747 131.614 36.502 131.82 36.8356 132.009C37.1891 132.208 37.5736 132.338 37.9276 132.538C38.2787 132.735 38.654 132.892 39.0227 133.057C39.3914 133.223 39.7719 133.364 40.1344 133.542C40.408 133.677 40.6919 133.783 40.9685 133.906C41.2458 134.03 41.5331 134.129 41.806 134.255C42.431 134.545 43.0803 134.769 43.7197 135.02C44.0209 135.138 44.3177 135.268 44.6287 135.359C44.9592 135.455 45.2744 135.595 45.5973 135.711C46.2048 135.929 46.8263 136.105 47.429 136.338C47.7108 136.446 48.0159 136.494 48.3069 136.581C48.5979 136.668 48.8786 136.802 49.1747 136.856C49.4776 136.912 49.7467 137.062 50.0489 137.11C50.1676 137.129 50.2785 137.197 50.3972 137.217C51.0379 137.328 51.6437 137.575 52.2836 137.69C52.7219 137.769 53.1343 137.963 53.5855 137.992C53.6445 137.996 53.7011 138.029 53.7602 138.043C54.1345 138.133 54.5066 138.235 54.8846 138.306C55.4027 138.404 55.925 138.479 56.4348 138.618C56.5323 138.645 56.6336 138.659 56.7337 138.675C57.1549 138.739 57.5767 138.8 57.9976 138.866C58.1178 138.885 58.2397 138.907 58.3538 138.946C58.5097 139.001 58.6686 139.021 58.831 139.036C59.0128 139.053 59.1959 139.07 59.3745 139.106C59.9521 139.221 60.5482 139.213 61.1192 139.371C61.177 139.387 61.2402 139.384 61.3011 139.388C62.0304 139.44 62.7511 139.587 63.4851 139.587C63.5256 139.587 63.5667 139.591 63.6063 139.599C64.185 139.719 64.7734 139.745 65.361 139.78C65.5633 139.792 65.765 139.816 65.9673 139.829C66.3319 139.853 66.6965 139.879 67.0615 139.893C68.1173 139.933 69.1737 139.946 70.2305 139.947C70.5543 139.947 70.8782 140 71.2019 140C71.5256 140 71.8492 139.952 72.1732 139.946C72.9858 139.931 73.7988 139.924 74.6116 139.919C75.8111 139.911 77.0023 139.768 78.1985 139.705C78.2389 139.703 78.2793 139.697 78.3192 139.689C78.7786 139.596 79.245 139.57 79.7113 139.543C79.8532 139.535 79.9974 139.535 80.1363 139.509C80.7751 139.389 81.4327 139.402 82.064 139.23C82.1604 139.203 82.2663 139.214 82.3669 139.201C82.8905 139.134 83.4139 139.066 83.9368 138.994C84.0368 138.98 84.1339 138.946 84.2326 138.923C84.331 138.9 84.4288 138.872 84.5286 138.856C84.9296 138.792 85.3299 138.721 85.7328 138.672C86.1368 138.624 86.5165 138.47 86.9233 138.429C87.2446 138.396 87.5617 138.314 87.878 138.242C88.2141 138.166 88.5426 138.046 88.8819 137.997C89.5473 137.9 90.1722 137.636 90.839 137.552C91.4114 137.343 92.0132 137.238 92.5944 137.06C92.7492 137.012 92.8972 136.932 93.0549 136.906C93.5976 136.817 94.0976 136.585 94.6285 136.455C94.8801 136.393 95.1412 136.327 95.3681 136.184C95.8073 136.097 96.2158 135.914 96.6414 135.784C97.0675 135.654 97.4809 135.488 97.8951 135.325C98.0261 135.273 98.1718 135.256 98.2999 135.2C98.7995 134.977 99.3176 134.802 99.8251 134.6C100.313 134.406 100.794 134.196 101.283 134.007C101.678 133.854 102.056 133.66 102.444 133.489C102.869 133.301 103.308 133.139 103.72 132.926C103.991 132.786 104.276 132.681 104.547 132.546C104.927 132.356 105.299 132.149 105.68 131.962C106.37 131.625 107.044 131.26 107.717 130.892C107.947 130.766 108.176 130.637 108.403 130.506C108.647 130.364 108.89 130.218 109.139 130.087C109.712 129.786 110.255 129.436 110.807 129.101C111.497 128.682 112.169 128.232 112.843 127.785C113.87 127.103 114.872 126.387 115.861 125.652C116.623 125.085 117.37 124.499 118.104 123.896C118.635 123.46 119.153 123.009 119.675 122.562C120.135 122.169 120.581 121.76 121.021 121.344C121.507 120.886 122.011 120.446 122.488 119.978C123.267 119.213 124.011 118.415 124.75 117.61C125.803 116.463 126.815 115.281 127.776 114.055C128.262 113.435 128.744 112.811 129.209 112.176C130.296 110.694 131.314 109.166 132.264 107.593C133.171 106.09 133.831 104.924 134.557 103.471C134.755 103.075 134.975 102.69 135.171 102.294C135.367 101.896 135.54 101.488 135.734 101.089C135.927 100.693 136.106 100.289 136.282 99.8855C136.685 98.9629 137.049 98.0229 137.42 97.0867C137.643 96.5243 137.856 95.9579 138.064 95.3895C138.258 94.8581 138.446 94.3248 138.622 93.7872C138.796 93.2506 138.947 92.7058 139.117 92.1678C139.325 91.5133 139.493 90.8478 139.695 90.1915C139.832 89.7483 139.923 89.2921 140.051 88.8449C140.2 88.3217 140.313 87.7853 140.427 87.2524C140.637 86.2635 140.879 85.28 141.03 84.2785C141.084 83.9186 141.166 83.563 141.233 83.2051C141.27 83.0066 141.305 82.8076 141.336 82.608C141.357 82.468 141.361 82.3255 141.385 82.1859C141.476 81.6473 141.573 81.1096 141.664 80.5709C141.684 80.4514 141.686 80.3289 141.698 80.2081C141.716 80.0268 141.733 79.8455 141.755 79.6646C141.791 79.3632 141.83 79.0622 141.867 78.7609C141.889 78.58 141.904 78.3982 141.932 78.2183C142.005 77.7578 142.064 77.2963 142.073 76.8294C142.075 76.7081 142.08 76.5858 142.097 76.4659C142.187 75.8435 142.21 75.2159 142.248 74.5895C142.264 74.3276 142.23 74.0611 142.319 73.8055C142.306 73.4802 142.379 73.1606 142.388 72.8379C142.415 71.9068 142.429 70.9754 142.447 70.1044Z" fill="#FEFEFE"/>
<path d="M142.448 70.1044C142.429 70.9754 142.415 71.9067 142.388 72.8379C142.378 73.1608 142.305 73.4803 142.318 73.8055C142.23 74.0609 142.263 74.3276 142.247 74.5895C142.209 75.2159 142.186 75.8435 142.096 76.4659C142.079 76.5858 142.074 76.7081 142.072 76.8294C142.063 77.2962 142.004 77.7578 141.932 78.2183C141.903 78.3981 141.888 78.5801 141.866 78.7609C141.829 79.0621 141.79 79.3631 141.754 79.6645C141.733 79.8455 141.715 80.0268 141.697 80.2081C141.685 80.3289 141.683 80.4514 141.663 80.5709C141.572 81.1097 141.475 81.6473 141.384 82.1859C141.361 82.3253 141.356 82.4679 141.335 82.608C141.305 82.8076 141.269 83.0066 141.232 83.2051C141.165 83.5632 141.083 83.9188 141.029 84.2785C140.878 85.28 140.637 86.2635 140.426 87.2524C140.312 87.7853 140.2 88.3217 140.05 88.8449C139.922 89.292 139.831 89.7484 139.695 90.1914C139.493 90.8478 139.324 91.5133 139.117 92.1678C138.946 92.706 138.796 93.2506 138.621 93.7872C138.446 94.3248 138.257 94.8583 138.063 95.3895C137.856 95.9579 137.643 96.5243 137.42 97.0867C137.048 98.0229 136.684 98.9629 136.281 99.8855C136.105 100.289 135.926 100.693 135.733 101.089C135.54 101.488 135.366 101.896 135.17 102.294C134.974 102.69 134.754 103.075 134.556 103.471C133.83 104.924 133.17 106.09 132.263 107.593C131.313 109.166 130.295 110.694 129.209 112.176C128.743 112.812 128.262 113.435 127.775 114.055C126.814 115.281 125.802 116.463 124.749 117.61C124.011 118.415 123.266 119.213 122.487 119.978C122.011 120.446 121.506 120.886 121.02 121.344C120.581 121.76 120.134 122.169 119.674 122.562C119.152 123.009 118.634 123.46 118.104 123.896C117.37 124.499 116.622 125.085 115.86 125.652C114.871 126.387 113.869 127.103 112.842 127.785C112.169 128.232 111.497 128.682 110.806 129.101C110.254 129.436 109.711 129.786 109.138 130.087C108.889 130.219 108.646 130.364 108.403 130.506C108.176 130.637 107.947 130.766 107.717 130.892C107.044 131.26 106.369 131.625 105.68 131.962C105.298 132.149 104.926 132.356 104.546 132.546C104.275 132.681 103.991 132.786 103.72 132.926C103.307 133.139 102.869 133.301 102.443 133.489C102.055 133.66 101.677 133.854 101.282 134.007C100.793 134.196 100.312 134.406 99.8245 134.6C99.3169 134.802 98.7989 134.977 98.2993 135.2C98.1711 135.257 98.0254 135.273 97.8944 135.325C97.4802 135.488 97.067 135.654 96.6407 135.784C96.2151 135.914 95.8066 136.097 95.3674 136.184C95.1406 136.327 94.8792 136.393 94.6278 136.455C94.097 136.585 93.5969 136.817 93.0543 136.906C92.8967 136.932 92.7486 137.012 92.5937 137.06C92.0125 137.238 91.4107 137.343 90.8383 137.552C90.1715 137.636 89.5467 137.9 88.8812 137.997C88.5418 138.047 88.2132 138.166 87.8773 138.242C87.5611 138.314 87.2441 138.396 86.9227 138.429C86.516 138.47 86.1363 138.624 85.7321 138.672C85.3291 138.721 84.9288 138.792 84.5279 138.856C84.4283 138.872 84.3305 138.9 84.232 138.923C84.1333 138.946 84.0361 138.98 83.9362 138.994C83.4132 139.066 82.8898 139.134 82.3663 139.201C82.2656 139.214 82.1596 139.203 82.0633 139.23C81.4321 139.402 80.7742 139.389 80.1357 139.509C79.9968 139.535 79.8527 139.535 79.7107 139.543C79.2443 139.57 78.778 139.596 78.3185 139.689C78.2787 139.697 78.2382 139.703 78.1978 139.705C77.0017 139.768 75.8104 139.911 74.6109 139.919C73.7981 139.924 72.9852 139.931 72.1725 139.946C71.8485 139.952 71.5249 140 71.2012 140C70.8774 140 70.5535 139.947 70.2298 139.947C69.1731 139.946 68.1168 139.933 67.0609 139.893C66.6958 139.879 66.3312 139.853 65.9666 139.829C65.7643 139.816 65.5627 139.792 65.3604 139.78C64.7727 139.745 64.1844 139.719 63.6056 139.599C63.5661 139.591 63.5249 139.587 63.4845 139.587C62.7504 139.587 62.0297 139.44 61.3004 139.388C61.2395 139.384 61.1764 139.387 61.1185 139.371C60.5476 139.213 59.9514 139.221 59.3738 139.106C59.195 139.07 59.0121 139.053 58.8303 139.036C58.668 139.021 58.509 139.001 58.3531 138.946C58.2389 138.907 58.117 138.885 57.9969 138.866C57.576 138.8 57.1542 138.739 56.733 138.675C56.6328 138.659 56.5317 138.645 56.4342 138.618C55.9244 138.479 55.402 138.404 54.884 138.306C54.5061 138.235 54.134 138.133 53.7595 138.043C53.7005 138.029 53.6439 137.996 53.5848 137.992C53.1336 137.963 52.7214 137.769 52.283 137.69C51.6432 137.575 51.0372 137.328 50.3965 137.217C50.2778 137.197 50.1671 137.129 50.0483 137.11C49.746 137.062 49.477 136.912 49.174 136.856C48.8779 136.802 48.5973 136.668 48.3063 136.581C48.0154 136.494 47.7103 136.446 47.4283 136.338C46.8256 136.105 46.2041 135.929 45.5967 135.711C45.2736 135.595 44.9585 135.455 44.628 135.359C44.3171 135.268 44.0202 135.138 43.7191 135.02C43.0797 134.769 42.4305 134.545 41.8053 134.255C41.5326 134.129 41.2452 134.03 40.9678 133.906C40.6913 133.783 40.4074 133.677 40.1337 133.542C39.7712 133.364 39.3908 133.223 39.022 133.057C38.6533 132.892 38.2781 132.735 37.9269 132.538C37.5728 132.338 37.1884 132.208 36.8349 132.009C36.5013 131.82 36.1741 131.613 35.8072 131.488C35.2925 131.167 34.7375 130.919 34.2156 130.612C33.8854 130.417 33.5461 130.238 33.2163 130.042C32.4169 129.569 31.6246 129.084 30.8388 128.588C30.1909 128.179 29.5601 127.745 28.9174 127.329C28.4434 127.022 27.9975 126.672 27.5371 126.344C26.9776 125.945 26.4223 125.542 25.8883 125.109C25.3863 124.701 24.8666 124.316 24.3631 123.91C23.6552 123.34 22.9749 122.737 22.2933 122.136C21.3513 121.304 20.4511 120.43 19.5593 119.546C18.7404 118.734 17.9438 117.901 17.1774 117.041C16.3988 116.168 15.6356 115.28 14.9113 114.36C14.1865 113.441 13.4768 112.51 12.7983 111.555C12.202 110.716 11.623 109.866 11.063 109.003C10.2826 107.799 9.55184 106.566 8.8553 105.314C8.40405 104.502 7.97126 103.68 7.56685 102.843C7.25962 102.208 6.9385 101.579 6.64743 100.936C6.31411 100.2 6.01434 99.4485 5.6859 98.7101C5.47264 98.2306 5.29476 97.7375 5.09187 97.2542C4.88105 96.7521 4.69249 96.2396 4.5163 95.7242C4.37305 95.3052 4.22584 94.8871 4.08763 94.4663C3.96223 94.0843 3.85438 93.6945 3.7119 93.3202C3.46705 92.6767 3.30443 92.0097 3.0959 91.3564C2.95494 90.9148 2.82573 90.4666 2.71315 90.0174C2.60026 89.5665 2.48036 89.118 2.3574 88.6698C2.27182 88.358 2.21949 88.0374 2.14535 87.7222C2.00196 87.1121 1.87793 86.4976 1.74308 85.886C1.61677 85.3133 1.50006 84.7403 1.41189 84.1611C1.40579 84.1211 1.39908 84.081 1.38931 84.0417C1.30602 83.7077 1.23997 83.3721 1.19374 83.0292C1.14782 82.6893 1.06636 82.3533 1.0415 82.0091C1.03707 81.9488 1.0325 81.8864 1.0148 81.8291C0.900082 81.4582 0.897947 81.0694 0.829757 80.6926C0.703445 79.9949 0.668968 79.2871 0.55486 78.5877C0.441057 77.8901 0.392699 77.1803 0.347849 76.4736C0.315813 75.9684 0.2612 75.4663 0.218944 74.9626C0.171653 74.3983 0.154567 73.8317 0.117497 73.2664C0.0779868 72.6618 0.0869873 72.0545 0.0151359 71.4515C0.003237 71.3515 0.00811862 71.2492 0.00811862 71.1479C0.00842372 70.3779 -0.0152216 69.607 0.016814 68.8383C0.0386288 68.3146 0.0465614 67.7888 0.104683 67.2656C0.144804 66.9044 0.131532 66.5377 0.152737 66.174C0.183399 65.6491 0.209638 65.1232 0.266539 64.6008C0.290642 64.3795 0.316576 64.1587 0.322373 63.9366C0.343883 63.1258 0.4795 62.3253 0.53747 61.5178C0.549063 61.3574 0.588269 61.1992 0.609931 61.0392C0.642424 60.7987 0.670646 60.5578 0.700241 60.317C0.729836 60.076 0.757753 59.8349 0.78811 59.5941C0.81084 59.4135 0.837689 59.2335 0.859657 59.0527C0.871861 58.9522 0.863928 58.8475 0.888489 58.7505C1.01312 58.2583 1.05904 57.7538 1.13928 57.2547C1.18749 56.9555 1.22974 56.6546 1.29458 56.3589C1.35529 56.0819 1.39267 55.7997 1.45598 55.5256C1.56063 55.0727 1.57771 54.6028 1.73926 54.1609C1.79403 54.0111 1.79296 53.8419 1.82622 53.6835C1.94277 53.1294 2.08937 52.5816 2.20317 52.0273C2.34138 51.3534 2.57539 50.7039 2.69835 50.0266C2.71971 49.9086 2.78317 49.799 2.81231 49.6818C3.03244 48.7993 3.3232 47.9371 3.56514 47.0608C3.77582 46.6013 3.84767 46.0933 4.0681 45.6362C4.12851 45.5109 4.14148 45.3636 4.18709 45.2301C4.49997 44.3142 4.83681 43.4072 5.19286 42.5067C5.50467 41.7178 5.82655 40.9333 6.16659 40.1566C6.45003 39.5093 6.74338 38.8659 7.04696 38.2277C7.37647 37.5351 7.72032 36.8491 8.06341 36.163C8.19887 35.8921 8.35096 35.6294 8.49299 35.3615C9.08931 34.238 9.72468 33.1355 10.3939 32.0552C11.1585 30.8207 11.96 29.6088 12.8105 28.4289C13.3774 27.6424 13.9479 26.8575 14.5483 26.0983C15.3111 25.1336 16.1063 24.1935 16.9184 23.2672C18.1067 21.9117 19.3705 20.6306 20.6624 19.3768C21.3143 18.7442 21.9725 18.1157 22.6781 17.5383C23.0056 17.2703 23.3099 16.972 23.6364 16.7006C24.3663 16.0936 25.1016 15.4935 25.8534 14.9125C26.4445 14.4555 27.0512 14.0201 27.646 13.5684C28.08 13.2388 28.5339 12.9347 28.9853 12.6287C29.4361 12.323 29.8955 12.0302 30.3498 11.7295C30.8542 11.3956 31.3728 11.0847 31.8845 10.7629C32.6367 10.2898 33.4091 9.85054 34.1816 9.41255C34.567 9.19409 34.945 8.95616 35.362 8.79547C35.779 8.50479 36.2619 8.33589 36.6966 8.07759C37.1493 7.8085 37.6409 7.61755 38.1122 7.38601C38.5838 7.15447 39.0519 6.91351 39.5351 6.70827C39.9819 6.51854 40.4168 6.3022 40.8751 6.13619C41.1967 6.01973 41.492 5.83411 41.8273 5.74623C42.2131 5.51789 42.6538 5.41937 43.0556 5.23071C43.4416 5.04949 43.8699 4.97712 44.24 4.75896C44.7921 4.62335 45.3003 4.35852 45.8481 4.21272C46.1027 4.14507 46.3355 4.02391 46.5889 3.94956C46.8375 3.87659 47.1016 3.83737 47.3351 3.69689C47.4685 3.61662 47.646 3.6116 47.8015 3.56539C48.1508 3.4617 48.4961 3.34312 48.848 3.24963C49.4734 3.08346 50.0774 2.84067 50.7186 2.72954C50.8368 2.70901 50.9465 2.64318 51.0639 2.61293C51.5541 2.48675 52.0461 2.36756 52.5367 2.2432C53.126 2.09391 53.725 1.98521 54.3134 1.83743C54.8261 1.70867 55.3503 1.64481 55.8597 1.51301C56.3719 1.38044 56.8984 1.32966 57.4123 1.21093C57.5303 1.18371 57.654 1.18234 57.7743 1.1641C57.935 1.13993 58.1012 1.12989 58.2536 1.07957C58.5083 0.995349 58.7729 0.990636 59.0315 0.943507C59.6507 0.83055 60.2838 0.814283 60.8981 0.669704C60.9376 0.66043 60.9776 0.651461 61.0179 0.647052C61.6438 0.579399 62.2697 0.511139 62.8961 0.446222C63.2392 0.410648 63.5829 0.381306 63.9262 0.348924C64.2698 0.316542 64.613 0.280816 64.957 0.25193C65.5025 0.206018 66.0481 0.158889 66.5942 0.122858C66.9385 0.100054 67.2842 0.0910843 67.6293 0.0856112C68.4013 0.0732969 69.1734 0.0694962 69.9454 0.0568779C70.1682 0.0532292 70.3906 0.025104 70.6133 0.019935C70.9988 0.0108133 71.3872 -0.0179201 71.7695 0.0164383C72.0534 0.0419791 72.3356 0.0535333 72.6193 0.0583982C73.6147 0.0754253 74.6103 0.0889559 75.6057 0.111456C75.8894 0.117841 76.1729 0.148399 76.4561 0.170443C76.7799 0.195528 77.1034 0.222133 77.4268 0.250714C77.8108 0.284616 78.1946 0.319887 78.5781 0.357894C78.6993 0.369904 78.8192 0.406391 78.94 0.408367C79.673 0.42053 80.3933 0.56374 81.1228 0.610565C81.2038 0.615734 81.2864 0.619231 81.3651 0.636714C81.8612 0.746782 82.3646 0.805161 82.8688 0.860196C83.1309 0.888777 83.3916 0.931041 83.6529 0.96692C83.7334 0.978018 83.8169 0.978474 83.8941 1.00113C84.3047 1.12138 84.7297 1.1644 85.1489 1.23829C85.3488 1.27356 85.5501 1.30108 85.7509 1.33103C85.8313 1.34304 85.9198 1.33392 85.9913 1.36478C86.3512 1.5203 86.7477 1.51042 87.1172 1.62171C87.2326 1.65652 87.357 1.66139 87.4766 1.68328C87.616 1.70882 87.7559 1.73329 87.8936 1.76659C88.2286 1.84747 88.5586 1.95769 88.8977 2.00953C89.221 2.05894 89.532 2.14575 89.844 2.23134C90.3328 2.36543 90.8365 2.43886 91.3192 2.59575C91.878 2.77727 92.4631 2.86879 93.0096 3.09136C93.6691 3.21162 94.2899 3.4649 94.9302 3.65159C95.318 3.7647 95.7129 3.87021 96.0851 4.02056C96.5167 4.19494 96.9745 4.29163 97.3954 4.4923C97.504 4.54399 97.628 4.56224 97.7415 4.60511C98.3848 4.84775 99.0274 5.09251 99.6696 5.33804C100.405 5.61899 101.13 5.92578 101.851 6.24033C102.554 6.54727 103.249 6.87489 103.947 7.19354C104.629 7.50475 105.277 7.88406 105.973 8.16257C106.452 8.46526 106.968 8.70045 107.466 8.9706C108.318 9.43383 109.162 9.91288 109.994 10.4105C110.514 10.7211 111.031 11.0359 111.54 11.3646C112.184 11.7812 112.833 12.193 113.466 12.6269C114.132 13.0837 114.786 13.5578 115.438 14.0353C116.156 14.5608 116.862 15.1018 117.555 15.6582C118.705 16.5818 119.829 17.536 120.902 18.5487C121.3 18.9239 121.718 19.278 122.109 19.6593C122.601 20.1386 123.076 20.6356 123.557 21.126C124.068 21.6463 124.555 22.1878 125.049 22.7237C125.817 23.5579 126.551 24.4211 127.265 25.3003C128.208 26.4607 129.106 27.6552 129.964 28.8801C130.856 30.1533 131.709 31.4524 132.504 32.7869C133.082 33.7572 133.637 34.7417 134.157 35.7457C134.722 36.8366 135.281 37.9296 135.787 39.0497C135.911 39.3238 136.026 39.6022 136.154 39.8731C136.283 40.1466 136.387 40.4297 136.516 40.7007C136.648 40.975 136.738 41.2655 136.868 41.536C137.079 41.9741 137.224 42.4354 137.407 42.8828C137.652 43.4804 137.864 44.0908 138.089 44.6964C138.229 45.0749 138.347 45.4611 138.477 45.8426C138.608 46.225 138.718 46.6148 138.85 46.9947C138.963 47.3191 139.056 47.649 139.155 47.9764C139.253 48.3043 139.38 48.6234 139.454 48.9598C139.585 49.5514 139.786 50.1247 139.918 50.7171C139.988 51.0311 140.097 51.3382 140.163 51.6551C140.311 52.3669 140.524 53.0644 140.639 53.7838C140.678 54.023 140.752 54.2563 140.802 54.4937C140.951 55.1862 141.048 55.8885 141.191 56.5818C141.333 57.2767 141.422 57.9788 141.524 58.6795C141.547 58.8399 141.581 58.9984 141.607 59.1585C141.638 59.3581 141.668 59.5582 141.695 59.7586C141.729 60.0193 141.771 60.2797 141.789 60.5418C141.851 61.4104 142.056 62.2632 142.068 63.1372C142.07 63.2989 142.083 63.4614 142.106 63.6215C142.198 64.2642 142.209 64.9129 142.254 65.5591C142.285 66.0022 142.332 66.4443 142.362 66.8875C142.388 67.2709 142.407 67.6551 142.416 68.0392C142.432 68.7074 142.437 69.3757 142.448 70.1044ZM98.8974 128.846C98.9633 128.85 99.0126 128.814 99.0124 128.755C99.0121 128.682 98.9856 128.61 98.9703 128.537C98.9909 128.397 99.0074 128.257 98.9494 128.121C99.0274 127.721 98.9317 127.33 98.891 126.936C98.8877 126.903 98.8451 126.874 98.8208 126.843C98.8196 126.537 98.8497 126.229 98.7534 125.93C98.7626 125.873 98.7438 125.824 98.6867 125.813C98.6373 125.803 98.5836 125.814 98.5319 125.815C98.4088 125.815 98.2858 125.815 98.1627 125.814C97.9855 125.797 97.9855 125.797 97.9356 125.929C97.8924 125.981 97.8773 126.039 97.8955 126.105C97.7847 126.184 97.7338 126.285 97.7791 126.421C97.7441 126.421 97.7309 126.501 97.7545 126.567C97.6544 126.657 97.5899 126.763 97.6061 126.904C97.5464 127.003 97.5251 127.111 97.538 127.226C97.441 127.297 97.3757 127.38 97.4335 127.508C97.3916 127.563 97.385 127.623 97.4088 127.687C97.3435 127.74 97.2853 127.814 97.1844 127.764C97.1701 127.685 97.1632 127.604 97.1402 127.527C96.9841 127.006 96.8247 126.486 96.6661 125.966C96.6401 125.881 96.5805 125.824 96.495 125.817C96.3141 125.803 96.1321 125.796 95.9506 125.796C95.7886 125.795 95.7296 125.852 95.7164 126.003C95.6402 126.887 95.5979 127.772 95.5578 128.658C95.556 128.697 95.5598 128.742 95.5769 128.776C95.5933 128.809 95.6264 128.845 95.6595 128.855C95.7163 128.872 95.779 128.876 95.8389 128.874C96.0336 128.867 96.0882 128.815 96.0984 128.624C96.118 128.261 96.1347 127.899 96.1526 127.536C96.2357 127.522 96.2707 127.456 96.3021 127.39C96.335 127.321 96.3756 127.265 96.4609 127.261C96.5851 127.687 96.7202 128.11 96.8291 128.54C96.8938 128.795 96.9629 128.839 97.1988 128.846C97.2982 128.848 97.3983 128.835 97.511 128.829C97.6949 128.324 97.87 127.833 97.9595 127.316C98.1013 127.198 98.1064 127.176 98.0498 127.02C98.0648 126.961 98.0798 126.902 98.0946 126.842C98.164 126.811 98.2088 126.703 98.311 126.773C98.2739 127.258 98.3389 127.738 98.3917 128.219C98.3437 128.397 98.3609 128.578 98.3905 128.756C98.4004 128.815 98.4651 128.843 98.5304 128.843L98.534 128.844C98.6533 128.942 98.7734 128.938 98.8938 128.846L98.8974 128.846ZM51.9797 32.6746C51.7571 32.6636 51.5344 32.6432 51.3118 32.6432C42.191 32.6416 33.0701 32.6419 23.9493 32.6422C23.7868 32.6422 23.6243 32.6434 23.462 32.6501C23.2944 32.6571 23.1969 32.7524 23.1897 32.9122C23.1844 33.0335 23.1835 33.1551 23.1835 33.2766C23.1832 39.7566 23.1832 46.2369 23.1838 52.7169C23.1838 52.8585 23.1894 53 23.1969 53.1414C23.2024 53.2443 23.2909 53.337 23.3905 53.3402C23.6137 53.3472 23.8371 53.3519 24.0605 53.3519C33.0392 53.3525 42.0178 53.3524 50.9965 53.3525C51.1793 53.3525 51.3622 53.3551 51.5449 53.3538C51.6705 53.3528 51.7843 53.3913 51.8941 53.4471C51.8966 53.6902 51.901 53.9333 51.901 54.1762C51.9013 76.7687 51.901 99.3612 51.9025 121.954C51.9025 122.875 51.7911 122.758 52.7127 122.759C59.4608 122.762 66.209 122.76 72.9571 122.76C73.9937 122.76 75.0303 122.761 76.067 122.76C76.2293 122.76 76.3916 122.752 76.5538 122.745C76.6297 122.741 76.7034 122.664 76.7056 122.584C76.7117 122.362 76.7176 122.139 76.7176 121.917C76.7182 111.279 76.7181 100.641 76.7182 90.0034C76.7182 89.8007 76.7175 89.5981 76.7214 89.3956C76.7249 89.2151 76.8027 89.135 76.9777 89.1314C77.1606 89.1274 77.3435 89.1286 77.5264 89.1286C85.9006 89.1285 94.2748 89.1285 102.649 89.1285C102.791 89.1285 102.933 89.1283 103.076 89.1285C103.669 89.1289 103.634 89.1332 103.634 88.5559C103.633 82.3962 103.634 76.2365 103.633 70.0767C103.633 69.935 103.63 69.7932 103.626 69.6515C103.623 69.5758 103.549 69.4981 103.47 69.4945C103.247 69.4844 103.024 69.4735 102.801 69.4735C94.3656 69.4724 85.9305 69.4726 77.4953 69.4726C77.3734 69.4726 77.2514 69.4726 77.1295 69.4726C77.0482 69.4726 76.9669 69.4733 76.8856 69.4718C76.6069 69.4666 76.555 69.4201 76.5512 69.1664C76.5487 69.0043 76.5503 68.8423 76.5503 68.68C76.5503 65.6001 76.5503 62.5203 76.5503 59.4404C76.5503 57.2925 76.55 55.1448 76.5509 52.9969C76.5509 52.8151 76.5576 52.6333 76.5646 52.4515C76.5675 52.3782 76.6493 52.3042 76.7297 52.3019C76.9327 52.2964 77.1359 52.2918 77.339 52.2918C86.5668 52.2914 95.7947 52.2914 105.022 52.2914C105.205 52.2914 105.388 52.2934 105.571 52.2899C105.652 52.2883 105.732 52.2766 105.813 52.268C105.885 52.2602 105.954 52.1798 105.955 52.0998C105.958 51.8973 105.961 51.6947 105.961 51.4922C105.962 45.5147 105.965 39.5374 105.959 33.56C105.957 32.4862 106.14 32.6379 105.026 32.6378C87.6267 32.6346 70.228 32.6355 52.8291 32.6355C52.6462 32.6355 52.4631 32.6315 52.2804 32.6376C52.1802 32.6413 52.0801 32.6618 51.9797 32.6746ZM107.793 79.9537H107.794C107.794 80.2371 107.792 80.5205 107.794 80.8038C107.796 81.1074 107.832 81.4044 107.891 81.7051C107.957 82.0441 108.064 82.3693 108.145 82.7025C108.289 83.2962 108.536 83.8476 108.799 84.3951C108.923 84.6534 109.129 84.8557 109.257 85.1075C109.387 85.3636 109.574 85.5769 109.756 85.7928C109.936 86.0081 110.145 86.2004 110.336 86.4076C110.514 86.601 110.71 86.7734 110.922 86.9291C111.084 87.0489 111.248 87.1674 111.41 87.2885C111.75 87.5431 112.088 87.8013 112.506 87.923C112.545 87.9341 112.582 87.9548 112.615 87.9773C112.904 88.173 113.231 88.2777 113.556 88.3916C113.823 88.4851 114.078 88.6161 114.369 88.6248C114.652 88.7561 114.97 88.7087 115.261 88.7989C115.712 88.9384 116.174 88.9763 116.644 88.9615C116.806 88.9564 116.969 88.9561 117.131 88.9617C117.641 88.9792 118.143 88.9375 118.636 88.7934C118.771 88.7539 118.918 88.7569 119.054 88.7188C119.481 88.5983 119.933 88.5617 120.327 88.3318C120.378 88.3016 120.437 88.2725 120.495 88.2646C120.743 88.231 120.954 88.1169 121.167 87.9951C121.377 87.8751 121.608 87.7926 121.815 87.669C122.373 87.3367 122.857 86.9051 123.367 86.5069C123.493 86.4078 123.607 86.2871 123.708 86.1615C123.949 85.8627 124.167 85.5449 124.415 85.2533C124.815 84.7843 125.024 84.2105 125.317 83.6827C125.327 83.665 125.334 83.6457 125.34 83.6266C125.57 82.9786 125.752 82.32 125.88 81.642C125.958 81.2244 125.978 80.8011 126.06 80.3839C126.121 80.0714 126.117 79.7363 126.042 79.4184C125.995 79.219 125.984 79.0192 125.965 78.8181C125.95 78.6577 125.925 78.4976 125.894 78.3395C125.847 78.1018 125.766 77.8682 125.745 77.629C125.724 77.3806 125.651 77.1559 125.555 76.9318C125.507 76.8205 125.471 76.7041 125.434 76.5883C125.213 75.8862 124.816 75.2734 124.446 74.6464C123.872 73.9107 123.248 73.224 122.474 72.6877C122.292 72.5612 122.118 72.418 121.924 72.3125C121.606 72.1388 121.307 71.9243 120.954 71.8159C120.478 71.5322 119.916 71.4784 119.418 71.2518C119.365 71.2274 119.299 71.2308 119.239 71.2209C119.139 71.2045 119.034 71.2019 118.94 71.168C118.685 71.0757 118.42 71.0838 118.157 71.08C117.872 71.0759 117.606 70.9402 117.315 70.9719C117.175 70.9872 117.031 70.9836 116.889 70.9728C116.277 70.9261 115.682 71.0999 115.073 71.1122C114.815 71.1174 114.542 71.1745 114.305 71.2761C114.023 71.3971 113.72 71.4406 113.44 71.559C113.347 71.5982 113.235 71.6063 113.158 71.6633C112.973 71.7995 112.748 71.8368 112.549 71.9336C112.476 71.9687 112.394 71.9853 112.325 72.0248C111.743 72.3556 111.197 72.7409 110.681 73.1618C110.129 73.6117 109.69 74.1721 109.269 74.7423C109.003 75.1022 108.806 75.5028 108.623 75.9078C108.474 76.2375 108.282 76.5545 108.203 76.9084C108.101 77.3606 107.897 77.7902 107.897 78.2647C107.791 78.5354 107.798 78.8202 107.794 79.1031C107.79 79.3869 107.793 79.6703 107.793 79.9537ZM93.9046 127.528C93.9073 127.528 93.9102 127.528 93.913 127.528C93.913 127.67 93.9115 127.811 93.9133 127.952C93.9163 128.194 93.9186 128.436 93.9269 128.677C93.9305 128.785 94.016 128.87 94.1194 128.873C94.2199 128.876 94.3215 128.872 94.4207 128.858C94.4513 128.854 94.4948 128.81 94.4997 128.779C94.5153 128.68 94.5203 128.578 94.5206 128.478C94.5223 127.913 94.5207 127.348 94.5221 126.783C94.5224 126.662 94.5284 126.541 94.5343 126.42C94.5374 126.359 94.6321 126.27 94.6979 126.265C94.8791 126.253 95.0608 126.246 95.2415 126.229C95.3528 126.219 95.4391 125.964 95.357 125.876C95.3198 125.836 95.2531 125.803 95.1994 125.803C94.5317 125.798 93.8639 125.799 93.1961 125.801C93.1594 125.801 93.1217 125.825 93.0866 125.843C93.0694 125.851 93.0523 125.867 93.0433 125.883C92.9778 126.003 93.0642 126.218 93.1862 126.231C93.3466 126.247 93.508 126.252 93.6686 126.266C93.8009 126.278 93.9012 126.373 93.9029 126.5C93.9075 126.842 93.9046 127.185 93.9046 127.528Z" fill="#010101"/>
<path d="M51.9798 32.6748C52.0802 32.662 52.1803 32.6415 52.2809 32.638C52.4637 32.6319 52.6468 32.6359 52.8297 32.6359C70.2285 32.6359 87.6272 32.635 105.026 32.6381C106.14 32.6383 105.958 32.4866 105.959 33.5603C105.965 39.5376 105.962 45.5151 105.962 51.4925C105.962 51.6951 105.959 51.8977 105.956 52.1002C105.954 52.18 105.885 52.2604 105.813 52.2684C105.733 52.277 105.652 52.2889 105.572 52.2902C105.389 52.2936 105.206 52.2918 105.023 52.2918C95.7953 52.2918 86.5673 52.2918 77.3395 52.2922C77.1365 52.2922 76.9333 52.2968 76.7302 52.3023C76.6498 52.3044 76.5679 52.3784 76.5652 52.4518C76.5582 52.6335 76.5516 52.8155 76.5514 52.9973C76.5505 55.1452 76.5508 57.2929 76.5508 59.4407C76.5508 62.5207 76.5508 65.6005 76.5508 68.6804C76.5508 68.8425 76.5493 69.0047 76.5518 69.1668C76.5556 69.4205 76.6074 69.467 76.8861 69.4722C76.9675 69.4737 77.0488 69.4728 77.1301 69.4729C77.252 69.4731 77.374 69.4729 77.4959 69.4729C85.931 69.4729 94.3662 69.4728 102.801 69.4739C103.024 69.4739 103.247 69.485 103.47 69.4948C103.55 69.4985 103.624 69.5762 103.626 69.6519C103.631 69.7936 103.634 69.9354 103.634 70.0771C103.634 76.2368 103.634 82.3966 103.634 88.5563C103.634 89.1336 103.669 89.1293 103.076 89.1288C102.934 89.1287 102.792 89.1288 102.65 89.1288C94.2754 89.1288 85.9011 89.1288 77.527 89.129C77.3441 89.129 77.161 89.1278 76.9783 89.1317C76.8033 89.1355 76.7255 89.2156 76.722 89.396C76.718 89.5985 76.7188 89.8011 76.7188 90.0038C76.7186 100.641 76.7188 111.279 76.7182 121.917C76.7182 122.14 76.7122 122.362 76.7061 122.585C76.704 122.664 76.6303 122.742 76.5543 122.745C76.3922 122.752 76.2299 122.76 76.0676 122.76C75.031 122.761 73.9944 122.761 72.9577 122.761C66.2096 122.761 59.4613 122.762 52.7133 122.759C51.7917 122.759 51.9032 122.875 51.9031 121.954C51.9015 99.3616 51.9019 76.7691 51.9015 54.1766C51.9015 53.9335 51.897 53.6904 51.8945 53.4479C51.922 53.3966 51.9703 53.3459 51.9734 53.2927C51.9848 53.0913 51.9836 52.8889 51.9836 52.6869C51.9839 46.3195 51.9839 39.9521 51.9838 33.5847C51.9833 33.2812 51.981 32.9781 51.9798 32.6748Z" fill="#FEFEFE"/>
<path d="M51.9799 32.6753C51.9811 32.9785 51.9835 33.2818 51.9835 33.5849C51.9837 39.9523 51.9837 46.3197 51.9834 52.6871C51.9834 52.8892 51.9846 53.0915 51.9732 53.2929C51.9701 53.3461 51.9217 53.3969 51.8943 53.4482C51.7846 53.3919 51.6708 53.3534 51.5453 53.3544C51.3625 53.3557 51.1796 53.3531 50.9968 53.3531C42.0182 53.353 33.0395 53.3531 24.0608 53.3525C23.8375 53.3525 23.6141 53.3478 23.3908 53.3408C23.2912 53.3376 23.2026 53.245 23.1972 53.142C23.1897 53.0006 23.1841 52.859 23.1841 52.7175C23.1835 46.2375 23.1835 39.7572 23.1838 33.2772C23.1838 33.1557 23.1847 33.0341 23.19 32.9128C23.1971 32.7528 23.2945 32.6577 23.4624 32.6507C23.6247 32.6438 23.7871 32.6428 23.9496 32.6428C33.0705 32.6425 42.1913 32.6423 51.3122 32.6438C51.5346 32.644 51.7571 32.6644 51.9799 32.6753Z" fill="#0B4DAD"/>
<path d="M107.794 79.9532C107.794 79.6699 107.791 79.3865 107.795 79.1031C107.798 78.8202 107.792 78.5354 107.897 78.2647C107.898 77.7902 108.102 77.3604 108.203 76.9084C108.283 76.5545 108.474 76.2374 108.623 75.9078C108.806 75.5028 109.003 75.1022 109.269 74.7423C109.691 74.1721 110.129 73.6115 110.681 73.1618C111.198 72.7409 111.744 72.3556 112.325 72.0248C112.395 71.9853 112.477 71.9687 112.549 71.9336C112.749 71.8368 112.973 71.7995 113.158 71.6633C113.236 71.6063 113.348 71.5982 113.441 71.559C113.721 71.4406 114.023 71.3971 114.305 71.2761C114.542 71.1745 114.815 71.1174 115.074 71.1122C115.682 71.1 116.277 70.9261 116.89 70.9728C117.031 70.9836 117.175 70.9871 117.316 70.9719C117.606 70.9402 117.872 71.0759 118.158 71.08C118.42 71.0838 118.685 71.0757 118.941 71.168C119.034 71.2019 119.139 71.2043 119.239 71.2209C119.299 71.2308 119.365 71.2274 119.418 71.2518C119.916 71.4784 120.478 71.5322 120.954 71.8159C121.307 71.9242 121.606 72.1388 121.925 72.3125C122.119 72.4181 122.292 72.5612 122.475 72.6877C123.249 73.224 123.872 73.9107 124.447 74.6464C124.816 75.2734 125.214 75.8862 125.435 76.5883C125.471 76.7039 125.508 76.8206 125.555 76.9318C125.652 77.1559 125.724 77.3806 125.746 77.629C125.767 77.8683 125.848 78.1018 125.894 78.3395C125.925 78.4976 125.95 78.6577 125.965 78.818C125.985 79.0192 125.996 79.219 126.042 79.4184C126.117 79.7363 126.122 80.0714 126.061 80.3839C125.978 80.8011 125.959 81.2244 125.88 81.642C125.753 82.32 125.571 82.9786 125.341 83.6266C125.334 83.6456 125.327 83.665 125.318 83.6827C125.025 84.2105 124.816 84.7843 124.416 85.2533C124.167 85.5448 123.949 85.8627 123.709 86.1615C123.607 86.2871 123.494 86.4078 123.367 86.5069C122.858 86.9049 122.373 87.3367 121.816 87.669C121.608 87.7924 121.377 87.8751 121.167 87.9951C120.955 88.1169 120.743 88.231 120.496 88.2646C120.437 88.2725 120.379 88.3016 120.327 88.3318C119.934 88.5617 119.481 88.5983 119.054 88.7187C118.919 88.7571 118.771 88.7539 118.636 88.7934C118.144 88.9375 117.642 88.9792 117.132 88.9617C116.969 88.9561 116.806 88.9565 116.644 88.9615C116.175 88.9763 115.712 88.9384 115.262 88.7989C114.971 88.7087 114.652 88.7561 114.369 88.6248C114.078 88.6161 113.824 88.4851 113.557 88.3916C113.231 88.2777 112.904 88.173 112.616 87.9773C112.582 87.9548 112.545 87.9341 112.507 87.923C112.089 87.8013 111.751 87.5431 111.41 87.2885C111.248 87.1674 111.085 87.0489 110.922 86.9291C110.711 86.7734 110.515 86.601 110.336 86.4076C110.145 86.2004 109.937 86.0081 109.756 85.7928C109.575 85.5769 109.388 85.3636 109.258 85.1075C109.13 84.8557 108.923 84.6534 108.799 84.3951C108.536 83.8476 108.29 83.2962 108.146 82.7025C108.065 82.3694 107.958 82.0442 107.892 81.7051C107.833 81.4045 107.797 81.1074 107.795 80.8038C107.793 80.5205 107.794 80.2371 107.794 79.9537C107.794 79.9532 107.794 79.9532 107.794 79.9532Z" fill="#007F36"/>
</g>
<defs>
<clipPath id="clip0_68_22208">
<rect width="142.448" height="140" fill="white"/>
</clipPath>
</defs>
</svg>
