<svg width="16" height="20" viewBox="0 0 16 20" fill="none" xmlns="http://www.w3.org/2000/svg">
<path d="M14.0662 1.20795e-05H5.82823C5.43412 -0.0011104 5.04371 0.0760072 4.67962 0.226895C4.31553 0.377782 3.98502 0.599437 3.70723 0.879012L0.879234 3.70701C0.599539 3.98491 0.377814 4.31559 0.226923 4.67986C0.0760319 5.04413 -0.00102125 5.43473 0.000233711 5.82901V18C-0.00779439 18.5215 0.191287 19.0249 0.553829 19.3998C0.916371 19.7747 1.41279 19.9905 1.93423 20H14.0662C14.5877 19.9905 15.0841 19.7747 15.4466 19.3998C15.8092 19.0249 16.0083 18.5215 16.0002 18V2.00001C16.0083 1.47854 15.8092 0.975164 15.4466 0.60025C15.0841 0.225336 14.5877 0.00948085 14.0662 1.20795e-05ZM5.00023 2.41401V5.00001H2.41423L5.00023 2.41401ZM2.00023 18V7.00001H5.00023C5.53067 7.00001 6.03937 6.7893 6.41445 6.41423C6.78952 6.03915 7.00023 5.53045 7.00023 5.00001V2.00001L13.9942 1.97801C13.9983 1.98461 14.0004 1.99225 14.0002 2.00001L14.0662 18H2.00023Z" fill="black"/>
<path d="M11.0662 9.00001H4.82823C4.56302 9.00001 4.30866 9.10537 4.12113 9.29291C3.93359 9.48044 3.82823 9.7348 3.82823 10C3.82823 10.2652 3.93359 10.5196 4.12113 10.7071C4.30866 10.8947 4.56302 11 4.82823 11H11.0662C11.3314 11 11.5858 10.8947 11.7733 10.7071C11.9609 10.5196 12.0662 10.2652 12.0662 10C12.0662 9.7348 11.9609 9.48044 11.7733 9.29291C11.5858 9.10537 11.3314 9.00001 11.0662 9.00001Z" fill="black"/>
<path d="M11.0662 13H4.82823C4.56302 13 4.30866 13.1054 4.12113 13.2929C3.93359 13.4804 3.82823 13.7348 3.82823 14C3.82823 14.2652 3.93359 14.5196 4.12113 14.7071C4.30866 14.8947 4.56302 15 4.82823 15H11.0662C11.3314 15 11.5858 14.8947 11.7733 14.7071C11.9609 14.5196 12.0662 14.2652 12.0662 14C12.0662 13.7348 11.9609 13.4804 11.7733 13.2929C11.5858 13.1054 11.3314 13 11.0662 13Z" fill="black"/>
</svg>
